<svg xmlns="http://www.w3.org/2000/svg" xmlns:xlink="http://www.w3.org/1999/xlink" id="Layer_1" x="0px" y="0px" viewBox="0 0 1031.3 144" style="enable-background:new 0 0 1031.3 144;" xml:space="preserve"><style type="text/css">	.st0{fill:#9D9E9E;}	.st1{fill:#0078BF;}</style><g id="Layer_x0020_1">	<g id="_2697223171168">		<path class="st0" d="M366.3,2.4h96.4v34.4h-43.9v104.9h-43V36.8h-43.8C331.9,36.8,366.3,2.4,366.3,2.4z M473.2,141.6V72V2.4H509   h35.9c6.6,0,12.5,0.3,17.6,0.9c5.1,0.6,9.4,1.4,12.9,2.6c3.5,1.1,6.7,2.8,9.5,4.9c2.8,2.1,5.3,4.7,7.5,7.8   c2.2,3.1,3.8,6.5,4.8,10.3c1.1,3.8,1.6,7.8,1.6,12.3c0,3.9-0.4,7.5-1.2,10.8c-0.8,3.3-2.1,6.4-3.7,9.2c-1.6,2.8-3.6,5.4-5.9,7.6   c-2.3,2.3-4.8,4.3-7.7,6c-1.8,1.1-4,2.1-6.5,3c-2.5,0.9-5.4,1.7-8.6,2.4c2.6,0.9,4.8,1.7,6.6,2.6c1.9,0.9,3.4,1.7,4.6,2.6   c0.8,0.6,1.7,1.5,2.9,2.7c1.1,1.2,2.5,2.8,4,4.6c1.5,1.9,2.8,3.5,3.8,5c1,1.4,1.8,2.7,2.3,3.7l10.4,20.2l10.4,20.2h-24.3h-24.3   L550,120.3l-11.5-21.3c-1.5-2.7-2.8-5-4.1-6.8c-1.3-1.8-2.5-3.1-3.7-3.9c-1.5-1.1-3.2-1.9-4.9-2.4c-1.8-0.5-3.6-0.8-5.6-0.8h-1.9   h-1.9v28.3v28.3h-21.6H473.2L473.2,141.6z M516.4,58.8h9.1h9.1c1,0,2.4-0.2,4.3-0.5c1.9-0.3,4.3-0.8,7.1-1.4   c1.4-0.3,2.7-0.8,3.9-1.5c1.2-0.7,2.2-1.7,3.1-2.8c0.9-1.2,1.6-2.4,2-3.8c0.4-1.3,0.7-2.8,0.7-4.3c0-2.3-0.4-4.2-1.1-6   c-0.7-1.7-1.8-3.2-3.2-4.4c-1.4-1.2-3.5-2.1-6.2-2.7c-2.7-0.6-6-0.9-9.9-0.9h-9.5h-9.5v14.2V58.8z M709.6,118.6h-24.5h-24.5   l-3.4,11.5l-3.4,11.5h-22h-22L636,72l26.2-69.6h23.5h23.5L735.3,72l26.2,69.6H739h-22.5l-3.4-11.5L709.6,118.6L709.6,118.6z    M700.6,88.5l-7.7-25l-7.7-25l-7.7,25l-7.7,25h15.4H700.6L700.6,88.5z M761.5,2.4h20.1h20.1l26.2,38.5l26.2,38.5V40.9V2.4h20.3   h20.3V72v69.6h-20.3h-20.3l-26.1-38.2L802,65.2v38.2v38.2h-20.2h-20.2V72C761.5,72,761.5,2.4,761.5,2.4z M904.9,95.6l20.5-1.3   l20.5-1.3c0.4,3.3,1.1,6.3,2,8.8c0.9,2.5,2,4.7,3.4,6.4c2.2,2.8,4.9,4.9,8.1,6.3c3.2,1.4,6.8,2.1,10.9,2.1c3.1,0,5.8-0.4,8.1-1.1   c2.4-0.7,4.4-1.8,6.1-3.2c1.7-1.4,2.9-3,3.7-4.7c0.8-1.7,1.2-3.5,1.2-5.4c0-1.8-0.4-3.5-1.2-5.1c-0.8-1.6-2-3.1-3.6-4.6   c-1.6-1.4-4.2-2.8-7.9-4.1c-3.7-1.3-8.4-2.6-14.2-3.9c-9.4-2.1-17.5-4.6-24.2-7.4c-6.7-2.8-12.1-6-16.1-9.5c-4-3.5-7.1-7.5-9.1-12   c-2-4.5-3-9.4-3-14.9c0-3.6,0.5-7.1,1.6-10.5c1-3.4,2.6-6.7,4.7-9.8c2.1-3.2,4.7-6,7.8-8.5c3.1-2.5,6.8-4.7,10.9-6.5   c4.2-1.8,9.1-3.2,14.8-4.1c5.7-0.9,12.2-1.4,19.4-1.4c8.9,0,16.7,0.8,23.5,2.5c6.8,1.7,12.5,4.1,17.2,7.4   c4.7,3.3,8.4,7.6,11.2,12.9c2.8,5.3,4.6,11.5,5.5,18.7l-20.3,1.2l-20.3,1.2c-0.5-3.1-1.4-5.8-2.5-8.1c-1.1-2.3-2.6-4.1-4.3-5.6   c-1.7-1.4-3.8-2.5-6.1-3.2c-2.4-0.7-5.1-1.1-8.1-1.1c-2.5,0-4.7,0.3-6.6,0.8c-1.9,0.5-3.5,1.3-4.7,2.4c-1.3,1.1-2.2,2.2-2.8,3.5   c-0.6,1.3-1,2.7-1,4.2c0,1.1,0.3,2.1,0.8,3.1c0.5,1,1.3,1.9,2.3,2.8c1,0.9,2.7,1.8,5.2,2.6c2.4,0.8,5.5,1.7,9.3,2.5   c9.4,2,17.5,4.1,24.2,6.1c6.7,2.1,12.1,4.1,16.2,6.2c4.1,2.1,7.6,4.4,10.5,7c3,2.6,5.4,5.4,7.2,8.5c1.8,3.1,3.2,6.3,4.2,9.8   c0.9,3.4,1.4,7.1,1.4,10.9c0,4.5-0.6,8.7-1.9,12.9c-1.2,4.1-3.1,8.1-5.6,11.8c-2.5,3.8-5.4,7.1-8.9,9.9c-3.5,2.9-7.4,5.3-11.8,7.2   c-4.4,1.9-9.4,3.4-15,4.4c-5.6,1-11.8,1.5-18.5,1.5c-11.8,0-21.9-1.1-30-3.4c-8.2-2.3-14.6-5.7-19.1-10.3   c-4.6-4.6-8.1-9.7-10.7-15.5C907.1,109,905.5,102.6,904.9,95.6L904.9,95.6z"></path>		<path class="st1" d="M266.2,106.7H316v34.8h-49.9h-38.2V40.6l38.2-38.2h85.4l-36.1,36.1h-49.4v17H316v34.2h-49.9L266.2,106.7   L266.2,106.7z M217.3,89.4c0,14.7-5.5,27.4-16.6,38.1c-11.1,10.7-24.4,16.1-39.9,16.1c-15.2,0-28.3-5.3-39.1-15.9   c-10.9-10.6-16.3-23.4-16.3-38.2V40.6l38.2-38.2v87.3c0,4.8,1.8,8.8,5.4,12.1c3.6,3.3,7.8,4.9,12.6,4.9c4.6,0,8.8-1.6,12.5-4.8   c3.7-3.2,5.6-7.3,5.6-12.2V2.4h37.7v18.8V89.4z M83.3,106.7v34.8H65.8c-18.6,0-34.2-6.7-46.8-20.1C6.3,108,0,92,0,73.4   c0-19.7,7.3-36.4,21.9-50.2C36.5,9.3,54.1,2.4,74.8,2.4h53.1L91.8,38.2H73.2c-9.9,0-18.5,3.4-25.7,10.3   c-7.3,6.8-10.9,15.1-10.9,24.9c0,8.9,3.1,16.7,9.2,23.3c6.1,6.7,13.5,10,22.2,10C67.9,106.7,83.3,106.7,83.3,106.7z"></path>	</g></g></svg>