<?xml version="1.0" encoding="utf-8"?>
<!-- Generator: Adobe Illustrator 24.2.3, SVG Export Plug-In . SVG Version: 6.00 Build 0)  -->
<svg version="1.1" id="Layer_1" xmlns="http://www.w3.org/2000/svg" xmlns:xlink="http://www.w3.org/1999/xlink" x="0px" y="0px"
	 viewBox="0 0 2220 590" style="enable-background:new 0 0 2220 590;" xml:space="preserve">
<style type="text/css">
	.st0{enable-background:new    ;}
	.st1{fill:#FFFFFF;}
</style>
<g class="st0">
	<path class="st1" d="M891.5,428.4L868,368.5H750.3l-23.4,59.9h-46.5l106.4-264.8h45.8l106.4,264.8H891.5z M764.8,330.6h88.8
		l-44.4-113.7L764.8,330.6z"/>
	<path class="st1" d="M1196.7,428.4h-56.7l-116.1-124.1v124.1h-45.1V163.5h45.1v123.2l109.3-123.2h56.4L1071,295.7L1196.7,428.4z"/>
	<path class="st1" d="M1277.4,163.5v264.8h-45.1V163.5H1277.4z"/>
	<path class="st1" d="M1382.2,163.5l137.6,191v-191h44.1v264.8h-42.6l-137.8-191.2v191.2H1339V163.5H1382.2z"/>
	<path class="st1" d="M1615.3,296c-0.4-25.5,5.3-48.8,17-70c11.7-21.1,27.9-37.8,48.7-49.9c20.8-12.1,43.8-18,68.9-17.6
		c18.7-0.2,36.4,3.2,53.2,10.2c16.8,7,31.2,16.7,43.3,28.9c12,12.2,21.5,26.9,28.4,44.1c6.9,17.2,10.1,35.2,9.8,54.3
		c0.5,25.5-5.2,48.8-17,70c-11.8,21.2-28.1,37.9-49,50c-20.9,12.1-43.7,17.9-68.6,17.4c-25.1,0.5-48.1-5.3-68.9-17.4
		s-37-28.8-48.7-50C1620.6,344.9,1614.9,321.5,1615.3,296z M1839.4,296c0-27.4-8.4-50.2-25.1-68.5c-16.7-18.3-38.2-27.5-64.4-27.5
		c-17.4,0-33,4.2-46.8,12.7c-13.8,8.5-24.4,20-31.9,34.5c-7.5,14.6-11.2,30.8-11.2,48.8c0,27.3,8.4,50,25.2,68.3
		c16.8,18.3,38.4,27.4,64.7,27.4c17.3,0,32.8-4.2,46.5-12.7c13.7-8.5,24.3-19.9,31.8-34.4C1835.7,330.1,1839.4,313.9,1839.4,296z"/>
	<path class="st1" d="M1978.6,163.5l137.6,191v-191h44.1v264.8h-42.6l-137.8-191.2v191.2h-44.4V163.5H1978.6z"/>
</g>
<path class="st1" d="M535.9,404.5c-20,65.9-81.3,113.9-153.7,113.9c-88.7,0-160.6-71.9-160.6-160.6s71.9-160.6,160.6-160.6
	c14.5,0,28.5,1.9,41.8,5.5L321.3,17.3L168.6,292.6L16,568h305.3h305.3L535.9,404.5z"/>
<circle class="st1" cx="392.4" cy="357.7" r="97.4"/>
</svg>
