<?xml version="1.0" encoding="utf-8"?>
<!-- Generator: Adobe Illustrator 24.0.1, SVG Export Plug-In . SVG Version: 6.00 Build 0)  -->
<svg version="1.1" id="Layer_1" xmlns="http://www.w3.org/2000/svg" xmlns:xlink="http://www.w3.org/1999/xlink" x="0px" y="0px"
	 width="288px" height="154px" viewBox="0 0 144 77" style="enable-background:new 0 0 144 77;" xml:space="preserve">
<style type="text/css">
	.st0{fill-rule:evenodd;clip-rule:evenodd;fill:#FFFFFF;}
	.st1{fill:#FFFFFF;}
</style>
<g>
	<path class="st0" d="M35.572,21.045v-0.706H1v0.706h1.666c0,0,0.58,0.026,1.211-0.151c0.631-0.176,1.818-0.202,1.818-0.202h9.538
		c0,0,0.505,0.051,1.944,0.127c1.438,0.075,1.918-0.076,1.918-0.076h4.114c0,0,0.807-0.026,1.489,0.05
		c0.681,0.076,1.691,0.252,1.691,0.252H35.572L35.572,21.045z"/>
	<path class="st0" d="M35.572,22.51v-0.833h-7.09c0,0-0.354-0.025-1.085,0.051l-5.602-0.051c0,0-1.312,0.278-2.018,0.201
		c-0.708-0.075-1.767-0.201-1.767-0.201s-0.605-0.051-1.085,0c-0.478,0.051-1.186,0.201-1.186,0.201H5.568c0,0-0.379,0.076-0.859,0
		c-0.479-0.075-0.883-0.201-0.883-0.201H1v0.833h3.205c0,0,0.555-0.051,0.959-0.202c0.404-0.152,1.06-0.101,1.06-0.101h9.085
		c0,0,0.429,0,0.707,0.151c0.278,0.152,0.682,0.152,0.682,0.152h2.725l2.448-0.429h5.476l1.161,0.075c0,0,0.631-0.025,1.489,0.228
		c0.87,0.255,1.64,0.126,1.64,0.126H35.572L35.572,22.51z"/>
	<path class="st0" d="M35.572,24.075v-0.909h-3.709c0,0-0.252,0.152-1.035,0.177c-0.782,0.025-7.697,0-7.697,0
		s-0.227,0.126-0.757-0.026c-0.53-0.152-1.009-0.227-1.009-0.227h-4.542l-1.263,0.303H7.182c0,0-0.1,0.075-0.732-0.076
		c-0.63-0.152-1.236-0.152-1.236-0.152H1v0.909h4.214c0,0,0.733-0.026,1.061-0.126c0.327-0.102,1.16-0.177,1.16-0.177h8.152
		c0,0,0.303,0,0.581,0.152c0.278,0.152,0.984,0.152,0.984,0.152h4.29c0,0,0.529,0.024,0.908-0.126
		c0.378-0.151,0.984-0.202,0.984-0.202h7.143c0,0,0.303-0.075,0.807,0.127c0.504,0.202,0.908,0.202,0.908,0.202H35.572
		L35.572,24.075z"/>
	<path class="st0" d="M35.572,25.992v-1.286h-3.305c0,0-0.429,0.05-0.656,0.303c-0.228,0.252-0.884,0.202-0.884,0.202h-7.343
		c0,0-0.657-0.202-1.111-0.353c-0.454-0.151-1.236-0.151-1.236-0.151h-3.912c0,0-0.354,0.025-0.732,0.303
		c-0.378,0.278-0.883,0.252-0.883,0.252H7.612c0,0,0.025,0.101-0.758-0.227c-0.782-0.328-1.388-0.328-1.388-0.328H1v1.286h5.022
		c0,0,0.555,0.051,0.984-0.176c0.429-0.227,0.884-0.202,0.884-0.202h7.621c0,0,0.48,0.075,0.681,0.227
		c0.202,0.151,0.985,0.151,0.985,0.151h4.391c0,0,0.807,0.051,1.16-0.151c0.353-0.202,0.783-0.278,0.783-0.278h6.889
		c0,0,0.606,0.025,0.884,0.227c0.278,0.201,1.009,0.201,1.009,0.201H35.572L35.572,25.992z"/>
	<path class="st0" d="M35.572,27.961v-1.338h-3.406c0,0-0.605,0-0.959,0.177c-0.353,0.177-0.656,0.253-1.262,0.278
		c-0.605,0.025-6.965,0-6.965,0s-0.403,0-0.833-0.177c-0.429-0.176-0.934-0.278-0.934-0.278h-4.214c0,0-0.554,0.051-0.808,0.202
		c-0.252,0.152-1.009,0.227-1.009,0.227H7.788c0,0-0.176-0.025-0.631-0.227c-0.454-0.202-0.833-0.202-0.833-0.202H1v1.338h5.198
		c0,0,0.505,0.076,0.883-0.278C7.46,27.33,8.04,27.455,8.04,27.455s6.461-0.025,7.192,0c0.733,0.026,1.01,0.505,1.868,0.505
		c0.858,0,2.473,0,3.331,0c0.858,0,1.161-0.531,1.841-0.505c0.682,0.026,7.293,0,7.293,0s0.606,0,0.833,0.102
		c0.228,0.101,0.934,0.404,0.934,0.404H35.572L35.572,27.961z"/>
	<path class="st0" d="M35.572,30.181h-8.883c0,0-2.573-0.404-3.759-0.606c-1.094-0.186-0.954-0.226-2.599-0.226
		c-1.439,0-2.322,0.454-2.322,0.454s-0.707,0.202-1.16,0.127c-0.455-0.077-0.909-0.43-1.566-0.48
		c-0.655-0.051-6.662-0.026-6.662-0.026s-0.783,0.203-1.161,0.404c-0.378,0.202-1.034,0.353-1.034,0.353H1v-1.59h4.997
		c0,0,1.17,0.085,1.438,0.228c0.412,0.218,0.859,0.252,0.859,0.252l6.94-0.026c0,0,0.505-0.05,0.808-0.201
		c0.303-0.151,1.136-0.252,1.136-0.252h1.993c0,0,0.883,0.026,1.489,0.203c0.606,0.176,2.927,0.378,3.685,0.581
		c0.707,0.188,1.993,0.226,2.7,0.075c0.707-0.152,1.187-0.126,2.397-0.581c1.212-0.454,2.498-0.278,2.498-0.278h3.633V30.181
		L35.572,30.181z"/>
	<path class="st0" d="M35.572,32.629v-1.842h-8.504c0,0-3.002,0.706-3.81,0.706c-0.808,0-2.385,0.182-3.129-0.152
		c-1.128-0.504-2.238-0.453-2.238-0.453s-1.715,0.196-2.305,0.353c-0.573,0.152-1.01,0.076-1.01,0.076l-6.385,0.024
		c0,0-0.53-0.151-1.085-0.353c-0.555-0.201-1.086-0.201-1.086-0.201H1v1.842h4.012c0,0,1.388,0.051,1.943-0.303
		c0.555-0.353,1.489-0.378,1.489-0.378h6.157c0,0,0.959,0.025,1.463,0.278c0.505,0.252,1.439,0.403,1.439,0.403h2.095
		c0,0,1.614-0.201,2.043-0.479c0.43-0.278,2.297-0.429,2.297-0.429s2.65-0.404,3.331-0.354c0.682,0.051,2.675,0.202,3.306,0.555
		c0.631,0.354,1.691,0.707,2.17,0.707C33.226,32.629,35.572,32.629,35.572,32.629L35.572,32.629z"/>
	<path class="st0" d="M35.572,35.481V33.26h-1.791c0,0-0.757,0.05-1.868,0.504c-1.11,0.455-1.463,0.202-1.463,0.227
		c0,0.025-5.628,0-5.628,0s-1.362,0.025-2.221-0.353c-0.858-0.378-2.346-0.378-2.346-0.378h-2.599c0,0-0.905,0.162-2.145,0.529
		c-1.219,0.362-1.792,0.252-1.792,0.252H8.924c0,0-0.404,0.025-1.162-0.378C7.005,33.26,6.4,33.26,6.4,33.26H1v2.221h3.659
		c0,0,1.413-0.05,2.271-0.581c0.859-0.53,1.868-0.354,1.868-0.354l4.794-0.025c0,0,1.688,0.287,2.044,0.454
		c0.539,0.252,1.287,0.505,1.287,0.505h4.038c0,0,0.782,0.151,2.019-0.48c1.236-0.631,2.145-0.455,2.145-0.455l5.325-0.05
		c0,0,2.12,0.075,2.574,0.328c0.454,0.253,1.085,0.428,1.085,0.428S34.967,35.632,35.572,35.481L35.572,35.481z"/>
	<path class="st0" d="M35.572,38.636v-2.524c0,0-1.135-0.152-1.413,0c-0.277,0.151-1.236,0.656-3.532,0.883
		c-2.298,0.227-4.846-0.051-4.846-0.051s-1.11-0.026-2.044-0.53c-0.934-0.504-2.12-0.302-2.12-0.302h-3.659
		c0,0-1.035,0.076-2.019,0.353c-0.984,0.277-1.237,0.479-2.195,0.479c-0.959,0-4.265,0.026-4.265,0.026s-1.338,0.025-2.272-0.378
		c-0.933-0.404-1.917-0.48-1.917-0.48H1v2.524c0,0,2.448-0.026,2.725,0c0.277,0.025,1.64-0.152,2.524-0.555
		c0.883-0.404,2.372-0.404,2.372-0.404l4.745-0.101c0,0,1.665-0.05,2.573,0.505c0.909,0.555,2.044,0.555,2.044,0.555h2.599
		c0,0,1.817,0.025,3.205-0.555c1.388-0.581,2.599-0.48,2.599-0.48l2.297-0.075c0,0,2.347-0.051,3.078,0.278
		c0.732,0.328,1.337,0.807,2.271,0.833C34.967,38.66,35.572,38.636,35.572,38.636L35.572,38.636z"/>
	<path class="st0" d="M1,42.799c0,0,2.167-0.34,4.82-0.984c2.599-0.63,4.997-0.707,5.426-0.707c0.429,0,3.432-0.075,4.139,0.429
		c0.706,0.505,1.564,1.338,3.331,1.262c1.767-0.076,2.549-1.716,5.173-1.64c2.625,0.076,3.887,0.101,5.602,0.681
		c1.716,0.58,4.164,0.807,6.082,0.807v-3.381c0,0-0.833-0.252-3.28,0.908c-2.448,1.162-4.82,0.581-4.82,0.581
		s-2.877-0.076-3.785-0.429c-0.909-0.354-1.691-1.085-2.625-1.06c-0.933,0.025-4.088,0.101-5.224,0.782
		c-1.136,0.681-2.397,0.403-2.397,0.403h-1.212c0,0-2.321,0.127-3.229,0.202c-0.909,0.076-2.55-0.101-4.089-0.908
		C3.372,38.939,1.429,39.468,1,39.266V42.799L1,42.799z"/>
	<path class="st0" d="M35.572,43.48v11.912H1V43.48c0,0,0.782-0.176,1.211,0c0.429,0.177,0.682,0.455,0.682,0.455
		s1.11,0.984,2.927,1.161c1.817,0.176,4.542-0.076,4.542-0.076s2.65-0.379,3.987-0.657c1.338-0.277,2.674-0.327,3.911,0.102
		c1.237,0.428,1.464,1.035,4.618,0.782c3.155-0.253,4.24-1.792,6.511-2.02C31.661,43.001,34.059,43.203,35.572,43.48L35.572,43.48z"
		/>
	<g>
		<path class="st1" d="M45.058,25.936c0-2.921,0-3.459-0.038-4.074c-0.038-0.653-0.192-0.961-0.826-1.095
			c-0.154-0.038-0.48-0.058-0.749-0.058c-0.212,0-0.327-0.038-0.327-0.173c0-0.134,0.134-0.173,0.423-0.173
			c1.019,0,2.229,0.058,2.614,0.058c0.942,0,1.691-0.058,2.345-0.058c3.479,0,4.094,1.864,4.094,2.883
			c0,1.576-0.903,2.518-1.96,3.363c1.576,0.538,3.498,1.903,3.498,4.151c0,2.056-1.595,4.19-5.131,4.19
			c-0.884,0-1.768-0.115-2.787-0.115c-0.769,0-1.557,0.058-2.421,0.058c-0.25,0-0.384-0.058-0.384-0.192
			c0-0.096,0.077-0.154,0.307-0.154c0.288,0,0.557-0.038,0.73-0.096c0.365-0.115,0.442-0.48,0.519-1.038
			c0.096-0.807,0.096-2.325,0.096-4.094V25.936z M47.364,26.263c0,0.154,0.058,0.192,0.134,0.211
			c0.173,0.038,0.461,0.058,0.903,0.058c0.634,0,1.057-0.077,1.384-0.365c0.5-0.404,0.788-1.095,0.788-2.037
			c0-1.288-0.749-2.979-2.402-2.979c-0.269,0-0.442,0-0.634,0.038c-0.134,0.038-0.173,0.115-0.173,0.327V26.263z M47.364,28.877
			c0,0.903,0,2.172,0,3.133c0,1.268,0.058,1.595,0.673,1.845c0.519,0.211,0.961,0.231,1.403,0.231c0.865,0,2.325-0.461,2.325-2.46
			c0-1.192-0.403-2.806-1.864-3.825c-0.404-0.288-0.846-0.423-1.595-0.461c-0.346-0.019-0.538-0.019-0.826-0.019
			c-0.077,0-0.115,0.038-0.115,0.134V28.877z"/>
	</g>
	<g>
		<g>
			<path class="st1" d="M58.57,30.837c-0.077,0-0.115,0.038-0.154,0.135l-0.846,2.095c-0.154,0.404-0.25,0.807-0.25,0.999
				c0,0.48,0.596,0.5,0.961,0.5c0.231,0,0.288,0.077,0.288,0.154c0,0.134-0.134,0.173-0.307,0.173c-0.596,0-1.288-0.058-1.883-0.058
				c-0.192,0-1.153,0.058-2.037,0.058c-0.211,0-0.308-0.038-0.308-0.173c0-0.096,0.096-0.173,0.231-0.173
				c1.211-0.115,1.48-0.346,1.922-1.461l4.074-9.628c0.346-0.903,0.538-1.268,0.75-1.268c0.154,0,0.25,0.173,0.442,0.596
				c0.327,0.942,3.171,7.495,4.247,9.955c0.615,1.441,1.095,1.691,1.499,1.768c0.173,0.038,0.461,0.038,0.634,0.038
				c0.211,0,0.288,0.077,0.288,0.173c0,0.115-0.077,0.173-0.327,0.173c-0.807,0-2.825,0.038-4.036-0.038
				c-0.173-0.019-0.288-0.058-0.288-0.154c0-0.077,0.077-0.115,0.173-0.154c0.173-0.058,0.307-0.115,0.192-0.346l-1.307-3.248
				c-0.019-0.077-0.077-0.115-0.154-0.115H58.57z M62.01,29.876c0.096,0,0.096-0.038,0.077-0.096l-1.499-3.921
				c-0.058-0.154-0.115-0.192-0.192,0l-1.518,3.921c-0.019,0.058,0,0.096,0.077,0.096H62.01z"/>
			<path class="st1" d="M78.634,27.685c0.058,0,0.115-0.038,0.115-0.115v-0.346c0-2.479,0-2.902-0.039-3.421
				c-0.038-0.538-0.173-0.749-0.73-0.865c-0.135-0.019-0.423-0.038-0.634-0.058c-0.211,0-0.307-0.077-0.307-0.192
				c0-0.115,0.115-0.154,0.346-0.154c0.942,0,2.075,0.058,2.498,0.058c0.346,0,1.576-0.058,2.268-0.058
				c0.231,0,0.327,0.038,0.327,0.154c0,0.115-0.077,0.192-0.288,0.192c-0.173,0.019-0.307,0.019-0.5,0.058
				c-0.461,0.058-0.596,0.307-0.634,0.865c-0.038,0.519-0.038,0.961-0.038,3.459v2.883c0,1.518,0,2.748,0.096,3.44
				c0.039,0.48,0.154,0.826,0.653,0.903c0.231,0.038,0.615,0.038,0.846,0.058c0.192,0,0.269,0.096,0.269,0.173
				c0,0.115-0.134,0.173-0.327,0.173c-1.114,0-2.306-0.058-2.748-0.058c-0.365,0-1.461,0.058-2.172,0.058
				c-0.25,0-0.346-0.058-0.346-0.173c0-0.077,0.058-0.173,0.269-0.173c0.231-0.019,0.442-0.019,0.596-0.058
				c0.346-0.077,0.442-0.423,0.5-0.923c0.096-0.673,0.096-1.883,0.096-3.382v-1.403c0-0.077-0.058-0.096-0.115-0.096h-6.227
				c-0.058,0-0.115,0.019-0.115,0.096v1.461c0,1.518,0,2.652,0.096,3.363c0.038,0.461,0.173,0.807,0.673,0.865
				c0.25,0.058,0.596,0.058,0.826,0.077c0.192,0,0.288,0.096,0.288,0.173c0,0.115-0.134,0.173-0.346,0.173
				c-1.076,0-2.306-0.058-2.729-0.058c-0.346,0-1.537,0.058-2.21,0.058c-0.192,0-0.327-0.058-0.327-0.173
				c0-0.077,0.058-0.173,0.269-0.173c0.25-0.019,0.442-0.019,0.596-0.058c0.346-0.077,0.461-0.442,0.5-0.923
				c0.096-0.673,0.096-1.903,0.096-3.421v-2.883c0-2.479,0-2.921-0.038-3.44c-0.039-0.557-0.173-0.769-0.75-0.884
				c-0.135-0.038-0.384-0.038-0.615-0.058c-0.211,0-0.288-0.077-0.288-0.192c0-0.115,0.134-0.154,0.346-0.154
				c0.923,0,2.037,0.058,2.479,0.058c0.442,0,1.576-0.058,2.249-0.058c0.269,0,0.365,0.058,0.365,0.173
				c0,0.115-0.134,0.173-0.308,0.173c-0.154,0.019-0.365,0.038-0.5,0.058c-0.461,0.058-0.596,0.327-0.634,0.884
				c-0.038,0.519-0.038,0.999-0.038,3.402v0.346c0,0.077,0.058,0.115,0.115,0.115H78.634z"/>
			<path class="st1" d="M84.939,24.188c-0.231-0.615-0.404-0.999-0.673-1.153c-0.192-0.115-0.5-0.134-0.653-0.154
				c-0.173,0-0.269-0.058-0.269-0.173c0-0.115,0.134-0.173,0.384-0.173c0.903,0,1.864,0.058,2.037,0.058
				c0.211,0,1.038-0.058,1.999-0.058c0.23,0,0.346,0.077,0.346,0.173c0,0.115-0.115,0.173-0.288,0.173
				c-0.154,0.019-0.231,0.019-0.423,0.077c-0.154,0.038-0.211,0.173-0.211,0.346c0,0.211,0.173,0.711,0.384,1.46
				c0.269,0.98,1.787,5.708,2.152,6.765l3.248-8.341c0.173-0.461,0.307-0.596,0.442-0.596c0.173,0,0.269,0.25,0.5,0.769l3.517,8.091
				c0.365-1.211,1.633-5.227,2.191-7.092c0.134-0.423,0.192-0.73,0.192-0.961c0-0.288-0.154-0.519-0.846-0.519
				c-0.154,0-0.288-0.077-0.288-0.173c0-0.096,0.115-0.173,0.384-0.173c0.923,0,1.672,0.058,1.826,0.058
				c0.115,0,0.922-0.058,1.499-0.058c0.192,0,0.308,0.077,0.308,0.173c0,0.115-0.096,0.173-0.231,0.173
				c-0.173,0.019-0.403,0.019-0.596,0.096c-0.423,0.134-0.615,0.692-0.98,1.672c-0.788,2.037-2.518,7.092-3.421,9.648
				c-0.211,0.577-0.307,0.807-0.519,0.807c-0.192,0-0.288-0.212-0.558-0.788l-3.517-8.014c-0.404,1.038-2.518,6.381-3.248,7.937
				c-0.308,0.653-0.423,0.865-0.634,0.865c-0.192,0-0.269-0.192-0.442-0.673L84.939,24.188z"/>
		</g>
	</g>
	<g>
		<g>
			<path class="st1" d="M105.063,30.837c-0.077,0-0.115,0.038-0.154,0.135l-0.846,2.095c-0.154,0.404-0.25,0.807-0.25,0.999
				c0,0.48,0.596,0.5,0.961,0.5c0.23,0,0.288,0.077,0.288,0.154c0,0.134-0.135,0.173-0.308,0.173c-0.596,0-1.288-0.058-1.883-0.058
				c-0.192,0-1.153,0.058-2.037,0.058c-0.211,0-0.308-0.038-0.308-0.173c0-0.096,0.096-0.173,0.231-0.173
				c1.211-0.115,1.48-0.346,1.922-1.461l4.074-9.628c0.346-0.903,0.538-1.268,0.75-1.268c0.154,0,0.25,0.173,0.442,0.596
				c0.327,0.942,3.171,7.495,4.247,9.955c0.615,1.441,1.095,1.691,1.499,1.768c0.173,0.038,0.461,0.038,0.634,0.038
				c0.211,0,0.288,0.077,0.288,0.173c0,0.115-0.077,0.173-0.327,0.173c-0.807,0-2.825,0.038-4.036-0.038
				c-0.173-0.019-0.288-0.058-0.288-0.154c0-0.077,0.077-0.115,0.173-0.154c0.173-0.058,0.308-0.115,0.192-0.346l-1.307-3.248
				c-0.019-0.077-0.077-0.115-0.154-0.115H105.063z M108.503,29.876c0.096,0,0.096-0.038,0.077-0.096l-1.499-3.921
				c-0.058-0.154-0.115-0.192-0.192,0l-1.518,3.921c-0.019,0.058,0,0.096,0.077,0.096H108.503z"/>
			<path class="st1" d="M116.23,22.861c0-0.365,0.058-0.596,0.25-0.596c0.173,0,0.327,0.192,0.615,0.48
				c0.307,0.269,2.556,2.594,5.304,5.17c1.249,1.192,3.402,3.382,3.709,3.651l-0.154-7.111c-0.019-0.98-0.154-1.307-0.615-1.48
				c-0.25-0.077-0.634-0.077-0.865-0.096c-0.212,0-0.289-0.096-0.289-0.192c0-0.135,0.192-0.154,0.423-0.154
				c0.846,0,1.71,0.058,2.133,0.058c0.211,0,0.903-0.058,1.711-0.058c0.211,0,0.365,0.038,0.365,0.173
				c0,0.096-0.077,0.173-0.288,0.173c-0.173,0.019-0.307,0.019-0.48,0.058c-0.5,0.134-0.653,0.461-0.673,1.384
				c-0.077,2.46-0.115,6.746-0.173,10.166c0,0.442-0.096,0.596-0.25,0.596c-0.211,0-0.461-0.211-0.826-0.538
				c-1.076-0.98-3.133-2.96-4.728-4.497c-1.691-1.576-3.575-3.575-4.036-4.055l0.173,6.669c0.039,1.249,0.231,1.653,0.577,1.768
				c0.288,0.096,0.615,0.096,0.903,0.115c0.173,0,0.288,0.058,0.288,0.154c0,0.134-0.154,0.192-0.384,0.192
				c-0.999,0-1.672-0.058-2.114-0.058c-0.211,0-1.095,0.058-1.922,0.058c-0.211,0-0.365-0.019-0.365-0.173
				c0-0.096,0.096-0.173,0.269-0.173c0.211-0.019,0.5-0.019,0.73-0.077c0.481-0.134,0.558-0.557,0.577-1.979
				C116.134,29.03,116.23,25.014,116.23,22.861z"/>
		</g>
	</g>
	<g>
		<g>
			<path class="st1" d="M45.346,53.566c-1.883-1.653-2.383-3.805-2.383-5.669c0-1.307,0.404-3.575,2.249-5.266
				c1.384-1.269,3.209-2.037,6.073-2.037c1.192,0,1.903,0.077,2.787,0.192c0.73,0.096,1.403,0.269,1.979,0.327
				c0.211,0.019,0.231,0.115,0.231,0.23c0,0.154-0.058,0.384-0.096,1.057c-0.038,0.634-0.019,1.691-0.058,2.075
				c-0.019,0.288-0.058,0.461-0.231,0.461c-0.154,0-0.192-0.173-0.192-0.442c-0.019-0.596-0.269-1.269-0.75-1.768
				c-0.634-0.672-2.133-1.191-3.901-1.191c-1.672,0-2.767,0.423-3.613,1.191c-1.403,1.288-1.768,3.113-1.768,4.977
				c0,4.574,3.479,6.842,6.054,6.842c1.71,0,2.748-0.192,3.517-1.076c0.327-0.365,0.577-0.922,0.653-1.269
				c0.058-0.307,0.096-0.384,0.25-0.384c0.135,0,0.173,0.134,0.173,0.288c0,0.23-0.231,1.902-0.423,2.556
				c-0.096,0.327-0.173,0.423-0.5,0.558c-0.769,0.307-2.229,0.442-3.459,0.442C49.305,55.661,47.095,55.084,45.346,53.566z"/>
			<path class="st1" d="M62.125,51.145c0-0.865-0.173-1.23-0.403-1.71c-0.212-0.423-2.364-3.844-2.96-4.708
				c-0.461-0.653-0.826-0.961-1.211-1.153c-0.192-0.096-0.423-0.173-0.615-0.192c-0.134,0-0.288-0.058-0.288-0.173
				c0-0.096,0.077-0.173,0.288-0.173c0.384,0,1.691,0.058,2.268,0.058c0.327,0,1.095-0.058,1.903-0.058
				c0.173,0,0.269,0.058,0.269,0.154s-0.058,0.154-0.307,0.211c-0.211,0.038-0.346,0.134-0.346,0.269
				c0,0.134,0.077,0.308,0.211,0.538c0.231,0.5,2.537,4.363,2.806,4.824c0.346-0.673,2.249-3.882,2.498-4.42
				c0.173-0.365,0.25-0.653,0.25-0.865c0-0.154-0.077-0.288-0.404-0.365c-0.154-0.038-0.307-0.096-0.307-0.192
				c0-0.115,0.077-0.154,0.307-0.154c0.596,0,1.134,0.058,1.653,0.058c0.346,0,1.499-0.058,1.826-0.058
				c0.192,0,0.327,0.058,0.327,0.154c0,0.115-0.135,0.192-0.346,0.192c-0.154,0.019-0.461,0.058-0.73,0.173
				c-0.365,0.173-0.557,0.346-0.903,0.769c-0.557,0.653-2.94,4.536-3.229,5.227c-0.25,0.615-0.25,1.153-0.25,1.614v1.307
				c0,0.269,0,0.922,0.038,1.595c0.038,0.461,0.154,0.846,0.692,0.903c0.25,0.058,0.596,0.058,0.846,0.077
				c0.192,0,0.288,0.096,0.288,0.173c0,0.115-0.096,0.173-0.307,0.173c-1.095,0-2.268-0.058-2.748-0.058
				c-0.423,0-1.557,0.058-2.191,0.058c-0.25,0-0.384-0.038-0.384-0.173c0-0.077,0.096-0.154,0.269-0.173
				c0.192-0.019,0.404-0.019,0.557-0.077c0.384-0.058,0.557-0.403,0.577-0.884c0.058-0.692,0.058-1.345,0.058-1.614V51.145z"/>
		</g>
	</g>
	<g>
		<g>
			<path class="st1" d="M72.179,47.762c0-2.46,0-2.864-0.038-3.383c-0.019-0.577-0.173-0.865-0.73-0.942
				c-0.134-0.019-0.423-0.038-0.634-0.058c-0.211,0-0.308-0.077-0.308-0.192c0-0.115,0.134-0.154,0.365-0.154
				c0.922,0,1.941,0.058,2.383,0.058c0.884,0,1.614-0.058,2.191-0.058c3.152,0,3.728,1.576,3.728,2.46
				c0,1.345-0.826,2.133-1.787,2.806c1.461,0.481,3.113,1.653,3.113,3.555c0,1.768-1.48,3.575-4.632,3.575
				c-0.75,0-1.749-0.096-2.575-0.096c-0.692,0-1.403,0.058-2.21,0.058c-0.211,0-0.327-0.058-0.327-0.173
				c0-0.077,0.058-0.173,0.288-0.173c0.231-0.019,0.442-0.019,0.596-0.058c0.308-0.077,0.423-0.365,0.481-0.865
				c0.096-0.73,0.096-1.96,0.096-3.555V47.762z M74.37,48.012c0,0.134,0.058,0.173,0.134,0.173c0.173,0.038,0.481,0.058,0.846,0.058
				c0.519,0,0.903-0.058,1.191-0.308c0.423-0.327,0.653-0.903,0.653-1.672c0-1.134-0.653-2.479-2.095-2.479
				c-0.25,0-0.403,0-0.557,0.038c-0.115,0.039-0.173,0.096-0.173,0.288V48.012z M74.37,50.318c0,0.769,0,1.826,0.019,2.633
				c0,0.98,0.038,1.249,0.557,1.461c0.442,0.173,0.826,0.192,1.211,0.192c0.788,0,2.018-0.384,2.018-2.056
				c0-0.98-0.211-2.268-1.499-3.113c-0.403-0.269-0.826-0.384-1.441-0.423c-0.307-0.019-0.519-0.019-0.769-0.019
				c-0.058,0-0.096,0.038-0.096,0.115V50.318z"/>
			<path class="st1" d="M84.306,47.762c0-2.499,0-2.941-0.038-3.479c-0.038-0.538-0.173-0.75-0.692-0.865
				c-0.154-0.039-0.423-0.039-0.653-0.058c-0.192,0-0.288-0.058-0.288-0.173c0-0.115,0.115-0.154,0.384-0.154
				c0.807,0,1.576,0.058,2.422,0.058c0.519,0,4.036,0,4.343-0.019c0.327-0.038,0.615-0.077,0.769-0.096
				c0.096-0.019,0.192-0.077,0.269-0.077c0.096,0,0.115,0.077,0.115,0.154c0,0.115-0.115,0.346-0.154,1.038
				c-0.019,0.308-0.039,0.634-0.077,1.134c0,0.096-0.038,0.269-0.192,0.269c-0.115,0-0.154-0.096-0.173-0.308
				c0-0.077,0-0.327-0.096-0.538c-0.115-0.308-0.269-0.481-1.095-0.577c-0.327-0.039-2.056-0.077-2.441-0.077
				c-0.077,0-0.115,0.058-0.115,0.173v3.978c0,0.115,0.019,0.173,0.115,0.173c0.404,0,2.249,0,2.671-0.019
				c0.481-0.038,0.73-0.096,0.884-0.269c0.115-0.154,0.192-0.211,0.269-0.211s0.115,0.038,0.115,0.134
				c0,0.115-0.077,0.48-0.134,1.268c0,0.327-0.058,1.019-0.058,1.153c0,0.134-0.019,0.307-0.173,0.307
				c-0.115,0-0.173-0.173-0.173-0.269c-0.019-0.154-0.019-0.25-0.058-0.442c-0.096-0.365-0.288-0.615-0.961-0.673
				c-0.346-0.038-1.96-0.058-2.383-0.058c-0.096,0-0.115,0.077-0.115,0.173v1.249c0,0.557-0.019,1.902,0,2.402
				c0.038,1.134,0.288,1.384,2.056,1.384c0.442,0,1.153,0,1.576-0.192c0.442-0.211,0.634-0.538,0.769-1.23
				c0.039-0.173,0.077-0.269,0.211-0.269c0.134,0,0.134,0.154,0.134,0.327c0,0.423-0.134,1.595-0.231,1.922
				c-0.115,0.423-0.269,0.423-0.903,0.423c-1.672,0-3.113-0.096-4.824-0.096c-0.692,0-1.384,0.058-2.191,0.058
				c-0.231,0-0.346-0.058-0.346-0.173c0-0.077,0.058-0.173,0.288-0.173c0.23-0.019,0.442-0.019,0.596-0.058
				c0.346-0.077,0.442-0.442,0.5-1.019c0.077-0.673,0.077-1.922,0.077-3.325V47.762z"/>
		</g>
	</g>
	<g>
		<g>
			<path class="st1" d="M94.396,47.762c0-2.499,0-2.864-0.038-3.383c-0.038-0.577-0.192-0.826-0.711-0.922
				c-0.211-0.038-0.442-0.058-0.653-0.077c-0.192,0-0.288-0.058-0.288-0.173c0-0.115,0.115-0.173,0.365-0.173
				c0.865,0,2.037,0.058,2.364,0.058c0.519,0,1.883-0.058,2.46-0.058c1.153,0,2.287,0.115,3.152,0.673
				c0.538,0.346,1.249,1.172,1.249,2.287c0,1.23-0.577,2.325-2.249,3.575c1.422,1.768,2.614,3.286,3.613,4.305
				c0.923,0.98,1.557,1.057,1.864,1.134c0.173,0.019,0.307,0.019,0.442,0.038c0.154,0,0.23,0.077,0.23,0.154
				c0,0.134-0.115,0.192-0.327,0.192h-1.614c-1.114,0-1.595-0.115-2.075-0.365c-0.673-0.365-1.307-1.114-2.191-2.325
				c-0.692-0.961-1.403-1.979-1.653-2.268c-0.058-0.077-0.154-0.096-0.269-0.096l-1.364-0.038c-0.077,0-0.135,0.038-0.135,0.134
				v0.346c0,1.48,0,2.614,0.077,3.286c0.039,0.48,0.154,0.846,0.673,0.903c0.231,0.058,0.577,0.058,0.807,0.077
				c0.154,0,0.211,0.077,0.211,0.154c0,0.115-0.115,0.192-0.327,0.192c-1.019,0-2.364-0.058-2.614-0.058
				c-0.288,0-1.461,0.058-2.133,0.058c-0.211,0-0.327-0.058-0.327-0.173c0-0.077,0.077-0.173,0.269-0.173
				c0.25-0.019,0.461-0.019,0.615-0.058c0.327-0.077,0.442-0.423,0.481-0.922c0.096-0.673,0.096-1.903,0.096-3.421V47.762z
				 M96.568,49.011c0,0.154,0.039,0.231,0.154,0.269c0.346,0.134,0.846,0.192,1.288,0.192c0.615,0,0.884-0.077,1.172-0.288
				c0.481-0.346,0.942-1.057,0.942-2.364c0-2.325-1.595-2.941-2.556-2.941c-0.404,0-0.711,0.019-0.865,0.077
				c-0.096,0.039-0.135,0.096-0.135,0.231V49.011z"/>
			<path class="st1" d="M112.635,49.818c0,1.768,0,3.286,0.096,4.113c0.058,0.538,0.173,0.961,0.75,1.038
				c0.269,0.039,0.692,0.077,0.98,0.077c0.211,0,0.308,0.058,0.308,0.154c0,0.134-0.154,0.192-0.365,0.192
				c-1.269,0-2.479-0.058-3.017-0.058c-0.442,0-1.653,0.058-2.422,0.058c-0.25,0-0.384-0.058-0.384-0.192
				c0-0.096,0.077-0.154,0.308-0.154c0.288,0,0.519-0.038,0.692-0.077c0.384-0.077,0.5-0.5,0.558-1.057
				c0.096-0.807,0.096-2.325,0.096-4.094v-7.879c-0.73,0.019-1.922,0.058-2.863,0.077c-1.115,0.039-1.576,0.134-1.864,0.557
				c-0.192,0.288-0.288,0.519-0.327,0.673c-0.038,0.154-0.096,0.231-0.211,0.231c-0.134,0-0.173-0.096-0.173-0.308
				c0-0.308,0.365-2.056,0.403-2.21c0.058-0.25,0.115-0.365,0.231-0.365c0.154,0,0.346,0.192,0.826,0.231
				c0.558,0.058,1.288,0.096,1.922,0.096h7.61c0.615,0,1.038-0.058,1.326-0.096c0.288-0.058,0.442-0.096,0.519-0.096
				c0.134,0,0.154,0.115,0.154,0.403c0,0.404-0.058,1.73-0.058,2.229c-0.019,0.192-0.058,0.308-0.173,0.308
				c-0.154,0-0.192-0.096-0.211-0.384c0-0.058-0.019-0.154-0.019-0.212c-0.038-0.5-0.557-1.038-2.268-1.076
				c-0.5-0.019-1.288-0.038-2.422-0.058V49.818z"/>
			<path class="st1" d="M120.919,47.762c0-2.499,0-2.941-0.038-3.479c-0.038-0.538-0.173-0.75-0.692-0.865
				c-0.154-0.039-0.423-0.039-0.653-0.058c-0.192,0-0.288-0.058-0.288-0.173c0-0.115,0.115-0.154,0.384-0.154
				c0.807,0,1.576,0.058,2.422,0.058c0.519,0,4.036,0,4.343-0.019c0.327-0.038,0.615-0.077,0.769-0.096
				c0.096-0.019,0.192-0.077,0.269-0.077c0.096,0,0.115,0.077,0.115,0.154c0,0.115-0.115,0.346-0.154,1.038
				c-0.019,0.308-0.038,0.634-0.077,1.134c0,0.096-0.038,0.269-0.192,0.269c-0.115,0-0.154-0.096-0.173-0.308
				c0-0.077,0-0.327-0.096-0.538c-0.115-0.308-0.269-0.481-1.095-0.577c-0.327-0.039-2.056-0.077-2.441-0.077
				c-0.077,0-0.115,0.058-0.115,0.173v3.978c0,0.115,0.019,0.173,0.115,0.173c0.404,0,2.249,0,2.671-0.019
				c0.481-0.038,0.73-0.096,0.884-0.269c0.115-0.154,0.192-0.211,0.269-0.211c0.077,0,0.115,0.038,0.115,0.134
				c0,0.115-0.077,0.48-0.134,1.268c0,0.327-0.058,1.019-0.058,1.153c0,0.134-0.019,0.307-0.173,0.307
				c-0.115,0-0.173-0.173-0.173-0.269c-0.019-0.154-0.019-0.25-0.058-0.442c-0.096-0.365-0.288-0.615-0.961-0.673
				c-0.346-0.038-1.96-0.058-2.383-0.058c-0.096,0-0.115,0.077-0.115,0.173v1.249c0,0.557-0.019,1.902,0,2.402
				c0.038,1.134,0.288,1.384,2.056,1.384c0.442,0,1.153,0,1.576-0.192c0.442-0.211,0.634-0.538,0.769-1.23
				c0.039-0.173,0.077-0.269,0.211-0.269c0.134,0,0.134,0.154,0.134,0.327c0,0.423-0.134,1.595-0.231,1.922
				c-0.115,0.423-0.269,0.423-0.903,0.423c-1.672,0-3.113-0.096-4.824-0.096c-0.692,0-1.384,0.058-2.191,0.058
				c-0.231,0-0.346-0.058-0.346-0.173c0-0.077,0.058-0.173,0.288-0.173c0.231-0.019,0.442-0.019,0.596-0.058
				c0.346-0.077,0.442-0.442,0.5-1.019c0.077-0.673,0.077-1.922,0.077-3.325V47.762z"/>
		</g>
	</g>
	<g>
		<g>
			<path class="st1" d="M134.141,48.781c0.807-0.711,2.69-2.729,3.555-3.69c0.73-0.826,0.999-1.192,0.999-1.403
				c0-0.115-0.019-0.211-0.384-0.308c-0.173-0.019-0.269-0.096-0.269-0.192c0-0.077,0.077-0.154,0.25-0.154
				c0.634,0,0.942,0.058,1.73,0.058c0.769,0,1.883-0.058,2.133-0.058c0.269,0,0.327,0.058,0.327,0.154
				c0,0.058-0.058,0.173-0.269,0.192c-0.346,0.039-0.577,0.096-0.846,0.173c-0.634,0.192-1.076,0.403-1.96,1.268
				c-0.769,0.788-2.902,2.979-3.344,3.44c0.846,1.134,3.747,4.19,4.574,4.977c1.403,1.288,1.826,1.538,2.344,1.691
				c0.308,0.096,0.461,0.096,0.692,0.115c0.25,0.019,0.327,0.077,0.327,0.173c0,0.115-0.077,0.173-0.307,0.173h-1.518
				c-1.96,0-2.594-0.192-3.536-1.134c-1.23-1.23-3.113-3.402-4.497-5.093v1.48c0,1.461,0,2.787,0.038,3.479
				c0.039,0.461,0.192,0.788,0.653,0.865c0.231,0.038,0.596,0.038,0.807,0.058c0.134,0,0.211,0.096,0.211,0.173
				c0,0.115-0.115,0.173-0.308,0.173c-0.98,0-2.191-0.058-2.556-0.058c-0.327,0-1.557,0.058-2.21,0.058
				c-0.231,0-0.346-0.058-0.346-0.173c0-0.077,0.077-0.173,0.288-0.173c0.231-0.019,0.365-0.019,0.538-0.058
				c0.442-0.077,0.5-0.404,0.557-0.884c0.096-0.673,0.096-1.941,0.096-3.459v-2.883c0-2.499,0-2.883-0.038-3.421
				c-0.038-0.519-0.173-0.788-0.711-0.884c-0.231-0.038-0.423-0.058-0.653-0.077c-0.192,0-0.288-0.077-0.288-0.192
				c0-0.115,0.115-0.154,0.384-0.154c0.865,0,2.037,0.058,2.402,0.058c0.346,0,1.614-0.058,2.191-0.058
				c0.25,0,0.346,0.038,0.346,0.154c0,0.115-0.115,0.192-0.269,0.192c-0.154,0.019-0.25,0.019-0.461,0.058
				c-0.48,0.077-0.615,0.384-0.653,0.942c-0.019,0.519-0.019,0.884-0.019,3.383V48.781z"/>
		</g>
	</g>
</g>
</svg>
